/* XPM */
static char *result[] = {
/* columns rows colors chars-per-pixel */
"64 64 3 1 ",
"  c gray12",
". c #EDE33B",
"X c #EAF141",
/* pixels */
"                                                                ",
"                                                                ",
"                                                                ",
"                                                                ",
"                                                                ",
"                                                                ",
"                                                                ",
"                                                                ",
"                                                                ",
"                                                                ",
"                                                                ",
"                                                                ",
"                  ..........................                    ",
"                  ..........................                    ",
"                ....XXXXXXXXXXXXXXXXXXXXXXXXXX                  ",
"                ....XXXXXXXXXXXXXXXXXXXXXXXXXX                  ",
"              ....XXXX                  ....XXXX                ",
"              ....XXXX                  ....XXXX                ",
"            ....XXXX                      ....XXXX              ",
"            ....XXXX                      ....XXXX              ",
"            ..XXXX                          ....XX              ",
"            ..XXXX                          ....XX              ",
"            ..XX                              ..XX              ",
"            ..XX                              ..XX              ",
"            ..XX        ..XXXXXXXXXXXX  XX    ..XX              ",
"            ..XX        ..XXXXXXXXXXXX  XX    ..XX              ",
"            ..XX      ..XXXX........XXXXXX    ..XX              ",
"            ..XX      ..XXXX........XXXXXX    ..XX              ",
"            ..XX    ..XXXX        ....XXXX    ..XX              ",
"            ..XX    ..XXXX        ....XXXX    ..XX              ",
"            ..XX    ..XX            ....XX    ..XX              ",
"            ..XX    ..XX            ....XX    ..XX              ",
"            ..XX    ..XX              ..XX    ..XX              ",
"            ..XX    ..XX              ..XX    ..XX              ",
"            ..XX    ..XX            ....XX    ..XX              ",
"            ..XX    ..XX            ....XX    ..XX              ",
"            ..XX    ..XXXX        ....XXXX    ..XX              ",
"            ..XX    ..XXXX        ....XXXX    ..XX              ",
"            ..XX      ..XXXX........XXXXXX    ..XX              ",
"            ..XX      ..XXXX........XXXXXX    ..XX              ",
"            ..XX        ..XXXXXXXXXXXX  XX    ..XX              ",
"            ..XX        ..XXXXXXXXXXXX  XX    ..XX              ",
"            ..XXXX                      XXXX..XXXX              ",
"            ..XXXX                      XXXX..XXXX              ",
"            ....XXXX                    ..XXXXXX                ",
"            ....XXXX                    ..XXXXXX                ",
"              ....XXXX                                          ",
"              ....XXXX                                          ",
"                ....XXXXXXXXXXXXXXXXXXXX                        ",
"                ....XXXXXXXXXXXXXXXXXXXX                        ",
"                  ......................                        ",
"                  ......................                        ",
"                                                                ",
"                                                                ",
"                                                                ",
"                                                                ",
"                                                                ",
"                                                                ",
"                                                                ",
"                                                                ",
"                                                                ",
"                                                                ",
"                                                                ",
"                                                                "
};
