/* XPM */
static char *result[] = {
/* columns rows colors chars-per-pixel */
"64 64 4 1 ",
"  c gray12",
". c #3B4C29",
"X c #689955",
"o c #7C9E6F",
/* pixels */
"                                                                ",
"                                                                ",
"                                          ooXXXXXX              ",
"                                         oooXXXXXXX             ",
"                                        ooooXXXXXXXX            ",
"                                        ooooXXXXXXXX            ",
"                                        ooooXXXX....            ",
"                                        ooooXXXX....            ",
"                                        ooooXXXX....            ",
"                                        ooooXXXX....            ",
"                                      ooXXXXXXXX....            ",
"                                     oooXXXXXXXX....            ",
"                                    ooooXXXXXXXX...             ",
"                                    ooooXXXXXXXX..              ",
"                                    ooooXXXX....                ",
"                                    ooooXXXX....                ",
"                                    ooooXXXX....                ",
"                                    ooooXXXX....                ",
"                                  ooXXXXXXXX...                 ",
"                                 oooXXXXXXXX..                  ",
"                                ooooXXXX....                    ",
"                                ooooXXXX....                    ",
"                                ooooXXXX....                    ",
"                                ooooXXXX....                    ",
"                              ooXXXXXXXX....                    ",
"                             oooXXXXXXXX....                    ",
"                            ooooXXXXXXXX...                     ",
"                            ooooXXXXXXXX..                      ",
"                            ooooXXXX....                        ",
"                            ooooXXXX....                        ",
"                            ooooXXXX....                        ",
"                            ooooXXXX....                        ",
"                          ooXXXXXXXX....                        ",
"                         oooXXXXXXXX....                        ",
"                        ooooXXXXXXXX...                         ",
"                        ooooXXXXXXXX..                          ",
"                        ooooXXXX....                            ",
"                        ooooXXXX....                            ",
"                        ooooXXXX....                            ",
"                        ooooXXXX....                            ",
"                      ooXXXXXXXX....                            ",
"                     oooXXXXXXXX....                            ",
"                    ooooXXXXXXXX...                             ",
"                    ooooXXXXXXXX..                              ",
"                    ooooXXXX....                                ",
"                    ooooXXXX....                                ",
"                    ooooXXXX....                                ",
"                    ooooXXXX....                                ",
"                  ooXXXXXXXX...                                 ",
"                 oooXXXXXXXX..                                  ",
"                ooooXXXX....                                    ",
"                ooooXXXX....                                    ",
"                ooooXXXX....                                    ",
"                ooooXXXX....                                    ",
"              ooXXXXXXXX....                                    ",
"             oooXXXXXXXX....                                    ",
"            ooooXXXXXXXX...                                     ",
"            ooooXXXXXXXX..                                      ",
"            ooooXXXX....                                        ",
"            ooooXXXX....                                        ",
"             oooXXXX...                                         ",
"              ooXXXX..                                          ",
"                                                                ",
"                                                                "
};
