/* XPM */
static char *result[] = {
/* columns rows colors chars-per-pixel */
"64 64 7 1 ",
"  c gray12",
". c #383F30",
"X c #516E2E",
"o c #5A9956",
"O c #628E4B",
"+ c #689955",
"@ c #7C9E6F",
/* pixels */
"                                                                ",
"                                                                ",
"                                                                ",
"                                                                ",
"                                                                ",
"                                                                ",
"                                                                ",
"                                                                ",
"                                                                ",
"                               XXX                              ",
"                               XXX                              ",
"           XXXX                XXX                XXXX          ",
"           XXXX                XXX                XXXX          ",
"           XXXX                OOO                XXXX          ",
"           XXXX                OOO                XXXX          ",
"               XXXX            OOO            XXXX              ",
"               XXXX            OOO            XXXX              ",
"               XXXX            OOO            XXXX              ",
"               XXXX            OOO            XXXX              ",
"                   ++++........OOO........++++                  ",
"                   ++++........OOO........++++                  ",
"                   ++++........OOO........++++                  ",
"                   ++++........OOO........++++                  ",
"                   ....++++....ooo....++++....                  ",
"                   ....++++....ooo....++++....                  ",
"                   ....++++....ooo....++++....                  ",
"                   ....++++....ooo....++++....                  ",
"                   ........++++ooo++++........                  ",
"                   ........++++ooo++++........                  ",
"                   ........++++ooo++++........                  ",
"                   ........++++ooo++++........                  ",
"                   ........oooo@@@oooo........                  ",
"                   ........oooo@@@oooo........                  ",
"                   ........oooo@@@oooo........                  ",
"                   ........++++ooo++++........                  ",
"                   ........++++ooo++++........                  ",
"                   ........++++ooo++++........                  ",
"                   ........++++ooo++++........                  ",
"                   ....++++....ooo....++++....                  ",
"                   ....++++....ooo....++++....                  ",
"                   ....++++....ooo....++++....                  ",
"                   ....++++....ooo....++++....                  ",
"                   ++++........OOO........++++                  ",
"                   ++++........OOO........++++                  ",
"                   ++++........OOO........++++                  ",
"                   ++++........OOO........++++                  ",
"               XXXX            OOO            XXXX              ",
"               XXXX            OOO            XXXX              ",
"               XXXX            XXX            XXXX              ",
"               XXXX            XXX            XXXX              ",
"           XXXX                XXX                XXXX          ",
"           XXXX                XXX                XXXX          ",
"           XXXX                XXX                XXXX          ",
"           XXXX                XXX                XXXX          ",
"                               XXX                              ",
"                               XXX                              ",
"                                                                ",
"                                                                ",
"                                                                ",
"                                                                ",
"                                                                ",
"                                                                ",
"                                                                ",
"                                                                "
};
