/* XPM */
static char *result[] = {
/* columns rows colors chars-per-pixel */
"64 64 56 1 ",
"  c gray12",
". c #1F1F1E",
"X c #202429",
"o c #254A6E",
"O c #264F79",
"+ c #264F78",
"@ c #254E77",
"# c #375D81",
"$ c #B2C1C5",
"% c #C4D0CF",
"& c #C3CFCE",
"* c #BFCAC9",
"= c #A6A3A4",
"- c #A29E9F",
"; c #A39F9F",
": c #94959B",
"> c #34587C",
", c #254E78",
"< c #1F1E1E",
"1 c #202428",
"2 c #C3D0CF",
"3 c #C0CAC9",
"4 c #A6A4A4",
"5 c #A39E9F",
"6 c #A49FA0",
"7 c #95969B",
"8 c #1F2020",
"9 c #202931",
"0 c #254A6F",
"q c #C3CECD",
"w c #BBC4C4",
"e c #999BA0",
"r c #94959A",
"t c #888E97",
"y c #32577C",
"u c #254566",
"i c #264E77",
"p c #A9A8A9",
"a c #A5A3A4",
"s c #406081",
"d c #33577C",
"f c #275078",
"g c #265079",
"h c #A29D9E",
"j c #244E77",
"k c #244D77",
"l c #365C81",
"z c #285179",
"x c #355B80",
"c c #46698A",
"v c #B4C3C6",
"b c #A3B5BC",
"n c #B3C2C5",
"m c #C1CDCD",
"M c #C5D1CF",
"N c white",
/* pixels */
"      .XoO++++++++++++++++++++++++++++@#$%&&&&&*=-;:>,OoX.      ",
"      .XoO++++++++++++++++++++++++++++@#$%&&&&&*=-;:>,OoX.      ",
"    ..<1oO++++++++++++++++++++++++++++@#$%&&&&234567>,Oo1<..    ",
"   81X190O++++++++++++++++++++++++++++@#$%&q3*3wer7ty,O091X18   ",
"  .1u0o0i+++++++++++++++++++++++++++++@#$%&3pa4esd>yf++i0o0u1.  ",
"  .X0gOO++++++++++++++++++++++++++++++@#$%&*ah5rdj,,++++OOg0X.  ",
"..<1oO++++++++++++++++++++++++++++++@@kl$%&*=-;:>,++++++++Oo1<..",
"XX190O+++++++++++++++++++++++++++++zx#lcv%&*=-;:>,++++++++O091XX",
"ooo0i+++++++++++++++++++++++++++++@xbn$vm&&*=-;:>,+++++++++i0ooo",
"OOOO++++++++++++++++++++++++++++++@#nM%%&&&*=-;:>,++++++++++OOOO",
"++++++++++++++++++++++++++++++++++@#$%&&&&234567>,++++++++++++++",
"++++++++++++++++++++++++++++++++++@#$%&q3*3wer7ty,++++++++++++++",
"++++++++++++++++++++++++++++++++++@#$%&3pa4esd>yf+++++++++++++++",
"++++++++++++++++++++++++++++++++++@#$%&*ah5rdj,,++++++++++++++++",
"++++++++++++++++++++++++++++++++@@kl$%&*=-;:>,++++++++++++++++++",
"+++++++++++++++++++++++++++++++zx#lcv%&*=-;:>,++++++++++++++++++",
"++++++++++++++++++++++++++++++@xbn$vm&&*=-;:>,++++++++++++++++++",
"++++++++++++++++++++++++++++++@#nM%%&&&*=-;:>,++++++++++++++++++",
"++++++++++++++++++++++++++++++@#$%&&&&234567>,++++++++++++++++++",
"++++++++++++++++++++++++++++++@#$%&q3*3wer7ty,++++++++++++++++++",
"++++++++++++++++++++++++++++++@#$%&3pa4esd>yf+++++++++++++++++++",
"++++++++++++++++++++++++++++++@#$%&*ah5rdj,,++++++++++++++++++++",
"++++++++++++++++++++++++++++@@kl$%&*=-;:>,++++++++++++++++++++++",
"+++++++++++++++++++++++++++zx#lcv%&*=-;:>,++++++++++++++++++++++",
"++++++++++++++++++++++++++@xbn$vm&&*=-;:>,++++++++++++++++++++++",
"++++++++++++++++++++++++++@#nM%%&&&*=-;:>,++++++++++++++++++++++",
"++++++++++++,,,,++++++++++@#$%&&&&234567>,++++++,,,,++++++++++++",
"+++++++++++fy>>yf+++++++++@#$%&q3*3wer7ty,+++++fy>>yf+++++++++++",
"++++++++++,yt77ty,++++++++@#$%&3pa4esd>yf+++++,yt77ty,++++++++++",
"++++++++++,>7667>,++++++++@#$%&*ah5rdj,,++++++,>7667>,++++++++++",
"++++++++++,>:;;:>,++++++@@kl$%&*=-;:>,++++++++,>:;;:>,++++++++++",
"++++++++++,>:;;:>,+++++zx#lcv%&*=-;:>,++++++++,>:;;:>,++++++++++",
"++++++++++,>:;;:>,++++@xbn$vm&&*=-;:>,++++++++,>:;;:>,++++++++++",
"++++++++++,>:;;:>,++++@#nM%%&&&*=-;:>,++++++++,>:;;:>,++++++++++",
"++++++++++,>7667>,++++@#$%&&&&234567>,++++++++,>7667>,++++++++++",
"++++++++++,yt77ty,++++@#$%&q3*3wer7ty,++++++++,yt77ty,++++++++++",
"+++++++++++fy>>yf+++++@#$%&3pa4esd>yf++++++++++fy>>yf+++++++++++",
"++++++++++++,,,,++++++@#$%&*ah5rdj,,++++++++++++,,,,++++++++++++",
"++++++++++++++++++++@@kl$%&*=-;:>,++++++++++++++++++++++++++++++",
"+++++++++++++++++++zx#lcv%&*=-;:>,++++++++++++++++++++++++++++++",
"++++++++++++++++++@xbn$vm&&*=-;:>,++++++++++++++++++++++++++++++",
"++++++++++++++++++@#nM%%&&&*=-;:>,++++++++++++++++++++++++++++++",
"++++++++++++++++++@#$%&&&&234567>,++++++++++++++++++++++++++++++",
"++++++++++++++++++@#$%&q3*3wer7ty,++++++++++++++++++++++++++++++",
"++++++++++++++++++@#$%&3pa4esd>yf+++++++++++++++++++++++++++++++",
"++++++++++++++++++@#$%&*ah5rdj,,++++++++++++++++++++++++++++++++",
"++++++++++++++++@@kl$%&*=-;:>,++++++++++++++++++++++++++++++++++",
"+++++++++++++++zx#lcv%&*=-;:>,++++++++++++++++++++++++++++++++++",
"++++++++++++++@xbn$vm&&*=-;:>,++++++++++++++++++++++++++++++++++",
"++++++++++++++@#nM%%&&&*=-;:>,++++++++++++++++++++++++++++++++++",
"++++++++++++++@#$%&&&&234567>,++++++++++++++++++++++++++++++++++",
"++++++++++++++@#$%&q3*3wer7ty,++++++++++++++++++++++++++++++++++",
"++++++++++++++@#$%&3pa4esd>yf+++++++++++++++++++++++++++++++++++",
"++++++++++++++@#$%&*ah5rdj,,++++++++++++++++++++++++++++++++++++",
"OOOO++++++++@@kl$%&*=-;:>,++++++++++++++++++++++++++++++++++OOOO",
"ooo0i++++++zx#lcv%&*=-;:>,+++++++++++++++++++++++++++++++++i0ooo",
"XX190O++++@xbn$vm&&*=-;:>,++++++++++++++++++++++++++++++++O091XX",
"..<1oO++++@#nM%%&&&*=-;:>,++++++++++++++++++++++++++++++++Oo1<..",
"  .X0gOO++@#$%&&&&234567>,++++++++++++++++++++++++++++++OOg0X.  ",
"  .1u0o0i+@#$%&q3*3wer7ty,+++++++++++++++++++++++++++++i0o0u1.  ",
"   81X190O@#$%&3pa4esd>yf+++++++++++++++++++++++++++++O091X18   ",
"    ..<1oO@#$%&*ah5rdj,,++++++++++++++++++++++++++++++Oo1<..    ",
"      .XoO@#$%&*=-;:>,++++++++++++++++++++++++++++++++OoX.      ",
"      .XoO@#$%&*=-;:>,++++++++++++++++++++++++++++++++OoX.      "
};
