/* XPM */
static char *result[] = {
/* columns rows colors chars-per-pixel */
"64 64 3 1 ",
"  c gray12",
". c gray88",
"X c gray98",
/* pixels */
"                                                                ",
"                                                                ",
"                                                                ",
"                                                                ",
"                                                                ",
"                                                                ",
"                                                                ",
"                                                                ",
"                                                                ",
"                                                                ",
"                                                                ",
"                                                                ",
"                                                                ",
"                                                                ",
"                                                                ",
"                                                                ",
"                                                                ",
"                                                                ",
"                                                                ",
"                                                                ",
"                                                                ",
"                                                                ",
"              ....................................              ",
"              ....................................              ",
"              ..XXXXXXXXXXXXXXXXXXXXXXXXXXXXXXXXXX              ",
"              ..XXXXXXXXXXXXXXXXXXXXXXXXXXXXXXXXXX              ",
"              ..XXXXXXXXXXXXXXXXXXXXXXXXXXXXXXXXXX              ",
"              ..XXXXXXXXXXXXXXXXXXXXXXXXXXXXXXXXXX              ",
"    ......                                            ......    ",
"    ......                                            ......    ",
"    ..XXXX                                            ..XXXX    ",
"    ..XXXX                                            ..XXXX    ",
"    ..XXXX                                            ..XXXX    ",
"    ..XXXX                                            ..XXXX    ",
"              ....................................              ",
"              ....................................              ",
"              ..XXXXXXXXXXXXXXXXXXXXXXXXXXXXXXXXXX              ",
"              ..XXXXXXXXXXXXXXXXXXXXXXXXXXXXXXXXXX              ",
"              ..XXXXXXXXXXXXXXXXXXXXXXXXXXXXXXXXXX              ",
"              ..XXXXXXXXXXXXXXXXXXXXXXXXXXXXXXXXXX              ",
"                                                                ",
"                                                                ",
"                                                                ",
"                                                                ",
"                                                                ",
"                                                                ",
"                                                                ",
"                                                                ",
"                                                                ",
"                                                                ",
"                                                                ",
"                                                                ",
"                                                                ",
"                                                                ",
"                                                                ",
"                                                                ",
"                                                                ",
"                                                                ",
"                                                                ",
"                                                                ",
"                                                                ",
"                                                                ",
"                                                                ",
"                                                                "
};
