/* XPM */
static char *result[] = {
/* columns rows colors chars-per-pixel */
"64 64 4 1 ",
"  c gray12",
". c #BC2D34",
"X c #BD2D34",
"o c #ED1C24",
/* pixels */
"                                                                ",
"                                                                ",
"                                                                ",
"                                                                ",
"                                                                ",
"                                                                ",
"                                                                ",
"                                                                ",
"                        XX                                      ",
"                        XX                                      ",
"                        XXXX......XX                            ",
"                        XXXX......XX                            ",
"                      XXXXoooooooo....XX                        ",
"                      XXXXoooooooo....XX                        ",
"                      XXXXoooooooooooo....                      ",
"                      XXXXoooooooooooo....                      ",
"                      XXoooooooooooooooo......                  ",
"                      XXoooooooooooooooo......                  ",
"                    XXXXoooooooooooooooooooo....                ",
"                    XXXXoooooooooooooooooooo....                ",
"                    XXoooooooooooooooooooooooo......            ",
"                    XXoooooooooooooooooooooooo......            ",
"                  XXXXoooooooooooooooooooooooooooo..........    ",
"                  XXXXoooooooooooooooooooooooooooo..........    ",
"                  XXoooooooooooooooooooooooooooooooooooooo..    ",
"                  XXoooooooooooooooooooooooooooooooooooooo..    ",
"                XXXXoooooooooooooooooooooooooooooooooooooo..    ",
"                XXXXoooooooooooooooooooooooooooooooooooooo..    ",
"                XXoooooooooooooooooooooooooooooooooooooo....    ",
"                XXoooooooooooooooooooooooooooooooooooooo....    ",
"                XXoooooooooooooooooooooooooooooooooooooo..      ",
"                XXoooooooooooooooooooooooooooooooooooooo..      ",
"              XXXX......oooooooooooooooooooooooooooooo....      ",
"              XXXX......oooooooooooooooooooooooooooooo....      ",
"              XXXX    XX..oooooooooooooooooooooooooooo..        ",
"              XXXX    XX..oooooooooooooooooooooooooooo..        ",
"            XXXX        XX..oooooooooooooooooooooooo....        ",
"            XXXX        XX..oooooooooooooooooooooooo....        ",
"            XXXX          XX..oooooooooooooooooooooo..          ",
"            XXXX          XX..oooooooooooooooooooooo..          ",
"          XXXX              XX..oooooooooooooooooo....          ",
"          XXXX              XX..oooooooooooooooooo....          ",
"          XXXX                XX..oooooooooooooooo..            ",
"          XXXX                XX..oooooooooooooooo..            ",
"        XXXX                    XX....oooooooooo....            ",
"        XXXX                    XX....oooooooooo....            ",
"        XXXX                        XX......oooo..              ",
"        XXXX                        XX......oooo..              ",
"      XXXX                                XX......              ",
"      XXXX                                XX......              ",
"      XXXX                                                      ",
"      XXXX                                                      ",
"    XXXX                                                        ",
"    XXXX                                                        ",
"    XXXX                                                        ",
"    XXXX                                                        ",
"    XX                                                          ",
"    XX                                                          ",
"    XX                                                          ",
"    XX                                                          ",
"                                                                ",
"                                                                ",
"                                                                ",
"                                                                "
};
