/* XPM */
static char *result[] = {
/* columns rows colors chars-per-pixel */
"64 64 3 1 ",
"  c gray12",
". c #BD2D34",
"X c #ED1C24",
/* pixels */
"                                                                ",
"                                                                ",
"                                                                ",
"                                                                ",
"                                                                ",
"                                                                ",
"                                                                ",
"                                                                ",
"                        ..                                      ",
"                        ..                                      ",
"                        ..............              ........    ",
"                        ..............              ........    ",
"                      ....XXXXXXXXXX....          ....XXXX..    ",
"                      ....XXXXXXXXXX....          ....XXXX..    ",
"                      ....XXXXXXXXXXXX....      ....XXXX....    ",
"                      ....XXXXXXXXXXXX....      ....XXXX....    ",
"                      ..XXXXXXXXXXXXXXXX..........XXXXXX..      ",
"                      ..XXXXXXXXXXXXXXXX..........XXXXXX..      ",
"                    ....XXXXXXXXXXXXXXXXXXXXXXXXXXXXXXXX..      ",
"                    ....XXXXXXXXXXXXXXXXXXXXXXXXXXXXXXXX..      ",
"                    ..XXXXXXXXXXXXXXXXXXXXXXXXXXXXXXXX....      ",
"                    ..XXXXXXXXXXXXXXXXXXXXXXXXXXXXXXXX....      ",
"                  ....XXXXXXXXXXXXXXXXXXXXXXXXXXXXXXXX..        ",
"                  ....XXXXXXXXXXXXXXXXXXXXXXXXXXXXXXXX..        ",
"                  ..XXXXXXXXXXXXXXXXXXXXXXXXXXXXXXXX....        ",
"                  ..XXXXXXXXXXXXXXXXXXXXXXXXXXXXXXXX....        ",
"                ....XXXXXXXXXXXXXXXXXXXXXXXXXXXXXXXX..          ",
"                ....XXXXXXXXXXXXXXXXXXXXXXXXXXXXXXXX..          ",
"                ..XXXXXXXXXXXXXXXXXXXXXXXXXXXXXXXXXX..          ",
"                ..XXXXXXXXXXXXXXXXXXXXXXXXXXXXXXXXXX..          ",
"                ..XXXXXXXXXXXXXXXXXXXXXXXXXXXXXXXX....          ",
"                ..XXXXXXXXXXXXXXXXXXXXXXXXXXXXXXXX....          ",
"              ................XXXXXXXXXXXXXXXXXXXX..            ",
"              ................XXXXXXXXXXXXXXXXXXXX..            ",
"              ....          ....XXXXXXXXXXXXXXXX....            ",
"              ....          ....XXXXXXXXXXXXXXXX....            ",
"            ....              ....XXXXXXXXXXXX....              ",
"            ....              ....XXXXXXXXXXXX....              ",
"            ....                ....XXXXXX......                ",
"            ....                ....XXXXXX......                ",
"          ....                    ..........                    ",
"          ....                    ..........                    ",
"          ....                                                  ",
"          ....                                                  ",
"        ....                                                    ",
"        ....                                                    ",
"        ....                                                    ",
"        ....                                                    ",
"      ....                                                      ",
"      ....                                                      ",
"      ....                                                      ",
"      ....                                                      ",
"    ....                                                        ",
"    ....                                                        ",
"    ....                                                        ",
"    ....                                                        ",
"    ..                                                          ",
"    ..                                                          ",
"    ..                                                          ",
"    ..                                                          ",
"                                                                ",
"                                                                ",
"                                                                ",
"                                                                "
};
