/* XPM */
static char *result[] = {
/* columns rows colors chars-per-pixel */
"64 64 5 1 ",
"  c gray12",
". c #BC2D34",
"X c #BD2D34",
"o c #BE2D34",
"O c #ED1C24",
/* pixels */
"                                                                ",
"                                                                ",
"                                                                ",
"                                                                ",
"                                                                ",
"                                                                ",
"                                                                ",
"                                                                ",
"                        XX                                      ",
"                        XX                                      ",
"                        XXoo..........                          ",
"                        XXoo..........                          ",
"                      XXXXOOOOOOOOOOoooooo                      ",
"                      XXXXOOOOOOOOOOoooooo                      ",
"                      XXXXOOOOOOOOOOOOOOoooo          oooooo    ",
"                      XXXXOOOOOOOOOOOOOOoooo          oooooo    ",
"                      XXOOOOOOOOOOOOOOOOOOoooooo    ooooOOoo    ",
"                      XXOOOOOOOOOOOOOOOOOOoooooo    ooooOOoo    ",
"                    XXXXOOOOOOOOOOOOOOOOOOOOOOooooooooOOOOoo    ",
"                    XXXXOOOOOOOOOOOOOOOOOOOOOOooooooooOOOOoo    ",
"                    XXOOOOOOOOOOOOOOOOOOOOOOOOOOOOOOOOOOOOoo    ",
"                    XXOOOOOOOOOOOOOOOOOOOOOOOOOOOOOOOOOOOOoo    ",
"                  XXXXOOOOOOOOOOOOOOOOOOOOOOOOOOOOOOOOOOoooo    ",
"                  XXXXOOOOOOOOOOOOOOOOOOOOOOOOOOOOOOOOOOoooo    ",
"                  XXOOOOOOOOOOOOOOOOOOOOOOOOOOOOOOOOOOOOoo      ",
"                  XXOOOOOOOOOOOOOOOOOOOOOOOOOOOOOOOOOOOOoo      ",
"                XXXXOOOOOOOOOOOOOOOOOOOOOOOOOOOOOOOOOOOOoo      ",
"                XXXXOOOOOOOOOOOOOOOOOOOOOOOOOOOOOOOOOOOOoo      ",
"                XXOOOOOOOOOOOOOOOOOOOOOOOOOOOOOOOOOOOOoooo      ",
"                XXOOOOOOOOOOOOOOOOOOOOOOOOOOOOOOOOOOOOoooo      ",
"                XXOOOOOOOOOOOOOOOOOOOOOOOOOOOOOOOOOOOOoo        ",
"                XXOOOOOOOOOOOOOOOOOOOOOOOOOOOOOOOOOOOOoo        ",
"              XXXXooooooooooooooOOOOOOOOOOOOOOOOOOOOOOoo        ",
"              XXXXooooooooooooooOOOOOOOOOOOOOOOOOOOOOOoo        ",
"              XXXX            ooooOOOOOOOOOOOOOOOOOOoooo        ",
"              XXXX            ooooOOOOOOOOOOOOOOOOOOoooo        ",
"            XXXX                ooooOOOOOOOOOOOOOOOOoo          ",
"            XXXX                ooooOOOOOOOOOOOOOOOOoo          ",
"            XXXX                  ooooooOOOOOOOOOOoooo          ",
"            XXXX                  ooooooOOOOOOOOOOoooo          ",
"          XXXX                        ooooooOOOOoooo            ",
"          XXXX                        ooooooOOOOoooo            ",
"          XXXX                            oooooooo              ",
"          XXXX                            oooooooo              ",
"        XXXX                                                    ",
"        XXXX                                                    ",
"        XXXX                                                    ",
"        XXXX                                                    ",
"      XXXX                                                      ",
"      XXXX                                                      ",
"      XXXX                                                      ",
"      XXXX                                                      ",
"    XXXX                                                        ",
"    XXXX                                                        ",
"    XXXX                                                        ",
"    XXXX                                                        ",
"    XX                                                          ",
"    XX                                                          ",
"    XX                                                          ",
"    XX                                                          ",
"                                                                ",
"                                                                ",
"                                                                ",
"                                                                "
};
